<?xml version="1.0" encoding="UTF-8" standalone="no"?>
<!DOCTYPE svg PUBLIC "-//W3C//DTD SVG 1.1//EN"
 "http://www.w3.org/Graphics/SVG/1.1/DTD/svg11.dtd">
<!-- Generated by graphviz version 2.43.0 (0)
 -->
<!-- Title: Algoritmo_Explicacao Pages: 1 -->
<svg width="516pt" height="654pt"
 viewBox="0.00 0.00 516.37 654.44" xmlns="http://www.w3.org/2000/svg" xmlns:xlink="http://www.w3.org/1999/xlink">
<g id="graph0" class="graph" transform="scale(1 1) rotate(0) translate(4 650.44)">
<title>Algoritmo_Explicacao</title>
<polygon fill="white" stroke="transparent" points="-4,4 -4,-650.44 512.37,-650.44 512.37,4 -4,4"/>
<!-- DB -->
<g id="node1" class="node">
<title>DB</title>
<ellipse fill="none" stroke="black" cx="253.33" cy="-619.57" rx="99.9" ry="26.74"/>
<text text-anchor="middle" x="253.33" y="-623.37" font-family="Times,serif" font-size="14.00">Base de Dados</text>
<text text-anchor="middle" x="253.33" y="-608.37" font-family="Times,serif" font-size="14.00">(30 mil registros)</text>
</g>
<!-- Gen_Ca -->
<g id="node2" class="node">
<title>Gen_Ca</title>
<ellipse fill="none" stroke="black" cx="128.33" cy="-529.83" rx="109.7" ry="26.74"/>
<text text-anchor="middle" x="128.33" y="-533.63" font-family="Times,serif" font-size="14.00">Gerar C_a</text>
<text text-anchor="middle" x="128.33" y="-518.63" font-family="Times,serif" font-size="14.00">(combinações de A)</text>
</g>
<!-- DB&#45;&gt;Gen_Ca -->
<g id="edge1" class="edge">
<title>DB&#45;&gt;Gen_Ca</title>
<path fill="none" stroke="black" d="M218.51,-594.13C204,-583.95 187,-572.02 171.7,-561.27"/>
<polygon fill="black" stroke="black" points="173.59,-558.32 163.4,-555.44 169.57,-564.05 173.59,-558.32"/>
</g>
<!-- Gen_Cb -->
<g id="node4" class="node">
<title>Gen_Cb</title>
<ellipse fill="none" stroke="black" cx="378.33" cy="-529.83" rx="109.7" ry="26.74"/>
<text text-anchor="middle" x="378.33" y="-533.63" font-family="Times,serif" font-size="14.00">Gerar C_b</text>
<text text-anchor="middle" x="378.33" y="-518.63" font-family="Times,serif" font-size="14.00">(combinações de B)</text>
</g>
<!-- DB&#45;&gt;Gen_Cb -->
<g id="edge2" class="edge">
<title>DB&#45;&gt;Gen_Cb</title>
<path fill="none" stroke="black" d="M288.15,-594.13C302.66,-583.95 319.66,-572.02 334.96,-561.27"/>
<polygon fill="black" stroke="black" points="337.09,-564.05 343.26,-555.44 333.07,-558.32 337.09,-564.05"/>
</g>
<!-- Filter_Ca -->
<g id="node3" class="node">
<title>Filter_Ca</title>
<ellipse fill="none" stroke="black" cx="122.33" cy="-440.09" rx="122.16" ry="26.74"/>
<text text-anchor="middle" x="122.33" y="-443.89" font-family="Times,serif" font-size="14.00">Filtrar C_a</text>
<text text-anchor="middle" x="122.33" y="-428.89" font-family="Times,serif" font-size="14.00">(remover a_m ≤ 0.25)</text>
</g>
<!-- Gen_Ca&#45;&gt;Filter_Ca -->
<g id="edge3" class="edge">
<title>Gen_Ca&#45;&gt;Filter_Ca</title>
<path fill="none" stroke="black" d="M126.53,-502.51C125.98,-494.54 125.38,-485.65 124.8,-477.16"/>
<polygon fill="black" stroke="black" points="128.28,-476.83 124.11,-467.09 121.3,-477.31 128.28,-476.83"/>
</g>
<!-- Gen_Cab -->
<g id="node6" class="node">
<title>Gen_Cab</title>
<ellipse fill="none" stroke="black" cx="253.33" cy="-350.35" rx="181.95" ry="26.74"/>
<text text-anchor="middle" x="253.33" y="-354.15" font-family="Times,serif" font-size="14.00">Gerar C_ab</text>
<text text-anchor="middle" x="253.33" y="-339.15" font-family="Times,serif" font-size="14.00">(produto cartesiano de C_a e C_b)</text>
</g>
<!-- Filter_Ca&#45;&gt;Gen_Cab -->
<g id="edge5" class="edge">
<title>Filter_Ca&#45;&gt;Gen_Cab</title>
<path fill="none" stroke="black" d="M159.17,-414.42C173.98,-404.49 191.23,-392.94 206.89,-382.45"/>
<polygon fill="black" stroke="black" points="209.04,-385.23 215.4,-376.75 205.14,-379.41 209.04,-385.23"/>
</g>
<!-- Filter_Cb -->
<g id="node5" class="node">
<title>Filter_Cb</title>
<ellipse fill="none" stroke="black" cx="385.33" cy="-440.09" rx="123.07" ry="26.74"/>
<text text-anchor="middle" x="385.33" y="-443.89" font-family="Times,serif" font-size="14.00">Filtrar C_b</text>
<text text-anchor="middle" x="385.33" y="-428.89" font-family="Times,serif" font-size="14.00">(remover b_M ≥ 0.75)</text>
</g>
<!-- Gen_Cb&#45;&gt;Filter_Cb -->
<g id="edge4" class="edge">
<title>Gen_Cb&#45;&gt;Filter_Cb</title>
<path fill="none" stroke="black" d="M380.43,-502.51C381.07,-494.54 381.77,-485.65 382.45,-477.16"/>
<polygon fill="black" stroke="black" points="385.95,-477.34 383.25,-467.09 378.97,-476.78 385.95,-477.34"/>
</g>
<!-- Filter_Cb&#45;&gt;Gen_Cab -->
<g id="edge6" class="edge">
<title>Filter_Cb&#45;&gt;Gen_Cab</title>
<path fill="none" stroke="black" d="M348.21,-414.42C333.28,-404.49 315.9,-392.94 300.12,-382.45"/>
<polygon fill="black" stroke="black" points="301.81,-379.37 291.55,-376.75 297.94,-385.2 301.81,-379.37"/>
</g>
<!-- Calc_ID -->
<g id="node7" class="node">
<title>Calc_ID</title>
<ellipse fill="none" stroke="black" cx="253.33" cy="-269.48" rx="215.56" ry="18"/>
<text text-anchor="middle" x="253.33" y="-265.78" font-family="Times,serif" font-size="14.00">Calcular {ID}&#39; = {ID}_{a_m} ∘ {ID}_{b_M}</text>
</g>
<!-- Gen_Cab&#45;&gt;Calc_ID -->
<g id="edge7" class="edge">
<title>Gen_Cab&#45;&gt;Calc_ID</title>
<path fill="none" stroke="black" d="M253.33,-323.09C253.33,-314.99 253.33,-306.05 253.33,-297.87"/>
<polygon fill="black" stroke="black" points="256.83,-297.7 253.33,-287.7 249.83,-297.7 256.83,-297.7"/>
</g>
<!-- Lookup -->
<g id="node8" class="node">
<title>Lookup</title>
<ellipse fill="none" stroke="black" cx="253.33" cy="-188.61" rx="121.74" ry="26.74"/>
<text text-anchor="middle" x="253.33" y="-192.41" font-family="Times,serif" font-size="14.00">Verificar existência</text>
<text text-anchor="middle" x="253.33" y="-177.41" font-family="Times,serif" font-size="14.00">do registro com {ID}&#39;</text>
</g>
<!-- Calc_ID&#45;&gt;Lookup -->
<g id="edge8" class="edge">
<title>Calc_ID&#45;&gt;Lookup</title>
<path fill="none" stroke="black" d="M253.33,-251.37C253.33,-243.88 253.33,-234.79 253.33,-225.91"/>
<polygon fill="black" stroke="black" points="256.83,-225.69 253.33,-215.69 249.83,-225.69 256.83,-225.69"/>
</g>
<!-- Calc_f -->
<g id="node9" class="node">
<title>Calc_f</title>
<ellipse fill="none" stroke="black" cx="253.33" cy="-107.74" rx="133.78" ry="18"/>
<text text-anchor="middle" x="253.33" y="-104.04" font-family="Times,serif" font-size="14.00">Calcular f = a_m * b_M * p</text>
</g>
<!-- Lookup&#45;&gt;Calc_f -->
<g id="edge9" class="edge">
<title>Lookup&#45;&gt;Calc_f</title>
<path fill="none" stroke="black" d="M253.33,-161.35C253.33,-153.25 253.33,-144.31 253.33,-136.13"/>
<polygon fill="black" stroke="black" points="256.83,-135.96 253.33,-125.96 249.83,-135.96 256.83,-135.96"/>
</g>
<!-- CSV -->
<g id="node10" class="node">
<title>CSV</title>
<ellipse fill="none" stroke="black" cx="253.33" cy="-26.87" rx="130.63" ry="26.74"/>
<text text-anchor="middle" x="253.33" y="-30.67" font-family="Times,serif" font-size="14.00">Gerar arquivo .csv</text>
<text text-anchor="middle" x="253.33" y="-15.67" font-family="Times,serif" font-size="14.00">(ordem crescente por f)</text>
</g>
<!-- Calc_f&#45;&gt;CSV -->
<g id="edge10" class="edge">
<title>Calc_f&#45;&gt;CSV</title>
<path fill="none" stroke="black" d="M253.33,-89.63C253.33,-82.14 253.33,-73.05 253.33,-64.17"/>
<polygon fill="black" stroke="black" points="256.83,-63.95 253.33,-53.95 249.83,-63.95 256.83,-63.95"/>
</g>
</g>
</svg>
