<?xml version="1.0" encoding="UTF-8" standalone="no"?>
<!DOCTYPE svg PUBLIC "-//W3C//DTD SVG 1.1//EN"
 "http://www.w3.org/Graphics/SVG/1.1/DTD/svg11.dtd">
<!-- Generated by graphviz version 2.43.0 (0)
 -->
<!-- Title: Algoritmo_Paralelizado Pages: 1 -->
<svg width="572pt" height="720pt"
 viewBox="0.00 0.00 571.83 720.00" xmlns="http://www.w3.org/2000/svg" xmlns:xlink="http://www.w3.org/1999/xlink">
<g id="graph0" class="graph" transform="scale(0.87 0.87) rotate(0) translate(4 821.56)">
<title>Algoritmo_Paralelizado</title>
<polygon fill="white" stroke="transparent" points="-4,4 -4,-821.56 651.66,-821.56 651.66,4 -4,4"/>
<!-- DB -->
<g id="node1" class="node">
<title>DB</title>
<ellipse fill="none" stroke="black" cx="347.73" cy="-790.69" rx="99.9" ry="26.74"/>
<text text-anchor="middle" x="347.73" y="-794.49" font-family="Times,serif" font-size="14.00">Base de Dados</text>
<text text-anchor="middle" x="347.73" y="-779.49" font-family="Times,serif" font-size="14.00">(30 mil registros)</text>
</g>
<!-- Gen_Ca -->
<g id="node2" class="node">
<title>Gen_Ca</title>
<ellipse fill="none" stroke="black" cx="229.73" cy="-700.95" rx="109.7" ry="26.74"/>
<text text-anchor="middle" x="229.73" y="-704.75" font-family="Times,serif" font-size="14.00">Gerar C_a</text>
<text text-anchor="middle" x="229.73" y="-689.75" font-family="Times,serif" font-size="14.00">(combinações de A)</text>
</g>
<!-- DB&#45;&gt;Gen_Ca -->
<g id="edge1" class="edge">
<title>DB&#45;&gt;Gen_Ca</title>
<path fill="none" stroke="black" d="M314.86,-765.25C301.4,-755.25 285.68,-743.55 271.43,-732.96"/>
<polygon fill="black" stroke="black" points="273.35,-730.03 263.24,-726.87 269.18,-735.65 273.35,-730.03"/>
</g>
<!-- Gen_Cb -->
<g id="node4" class="node">
<title>Gen_Cb</title>
<ellipse fill="none" stroke="black" cx="475.73" cy="-700.95" rx="109.7" ry="26.74"/>
<text text-anchor="middle" x="475.73" y="-704.75" font-family="Times,serif" font-size="14.00">Gerar C_b</text>
<text text-anchor="middle" x="475.73" y="-689.75" font-family="Times,serif" font-size="14.00">(combinações de B)</text>
</g>
<!-- DB&#45;&gt;Gen_Cb -->
<g id="edge2" class="edge">
<title>DB&#45;&gt;Gen_Cb</title>
<path fill="none" stroke="black" d="M383.04,-765.48C398.03,-755.21 415.66,-743.13 431.5,-732.27"/>
<polygon fill="black" stroke="black" points="433.81,-734.92 440.08,-726.38 429.85,-729.15 433.81,-734.92"/>
</g>
<!-- Filter_Ca -->
<g id="node3" class="node">
<title>Filter_Ca</title>
<ellipse fill="none" stroke="black" cx="211.73" cy="-600.6" rx="127.06" ry="37.45"/>
<text text-anchor="middle" x="211.73" y="-611.9" font-family="Times,serif" font-size="14.00">Filtrar C_a</text>
<text text-anchor="middle" x="211.73" y="-596.9" font-family="Times,serif" font-size="14.00">(remover a_m ≤ 0.25)</text>
<text text-anchor="middle" x="211.73" y="-581.9" font-family="Times,serif" font-size="14.00">(OpenMP Paralelizado)</text>
</g>
<!-- Gen_Ca&#45;&gt;Filter_Ca -->
<g id="edge3" class="edge">
<title>Gen_Ca&#45;&gt;Filter_Ca</title>
<path fill="none" stroke="black" d="M224.95,-673.85C223.5,-665.92 221.85,-656.94 220.23,-648.08"/>
<polygon fill="black" stroke="black" points="223.67,-647.4 218.42,-638.19 216.78,-648.66 223.67,-647.4"/>
</g>
<!-- Gen_Cab -->
<g id="node6" class="node">
<title>Gen_Cab</title>
<ellipse fill="none" stroke="black" cx="181.73" cy="-489.65" rx="181.95" ry="26.74"/>
<text text-anchor="middle" x="181.73" y="-493.45" font-family="Times,serif" font-size="14.00">Gerar C_ab</text>
<text text-anchor="middle" x="181.73" y="-478.45" font-family="Times,serif" font-size="14.00">(produto cartesiano de C_a e C_b)</text>
</g>
<!-- Filter_Ca&#45;&gt;Gen_Cab -->
<g id="edge5" class="edge">
<title>Filter_Ca&#45;&gt;Gen_Cab</title>
<path fill="none" stroke="black" d="M201.65,-563.02C198.41,-551.26 194.83,-538.24 191.61,-526.53"/>
<polygon fill="black" stroke="black" points="194.91,-525.35 188.88,-516.64 188.16,-527.21 194.91,-525.35"/>
</g>
<!-- Hash_Table -->
<g id="node8" class="node">
<title>Hash_Table</title>
<ellipse fill="none" stroke="black" cx="514.73" cy="-489.65" rx="132.87" ry="37.45"/>
<text text-anchor="middle" x="514.73" y="-500.95" font-family="Times,serif" font-size="14.00">Criar Tabela Hash</text>
<text text-anchor="middle" x="514.73" y="-485.95" font-family="Times,serif" font-size="14.00">com Registros Filtrados</text>
<text text-anchor="middle" x="514.73" y="-470.95" font-family="Times,serif" font-size="14.00">(OpenMP Paralelizado)</text>
</g>
<!-- Filter_Ca&#45;&gt;Hash_Table -->
<g id="edge7" class="edge">
<title>Filter_Ca&#45;&gt;Hash_Table</title>
<path fill="none" stroke="black" d="M290.94,-571.12C332.02,-556.35 382.36,-538.25 424.89,-522.95"/>
<polygon fill="black" stroke="black" points="426.17,-526.21 434.39,-519.54 423.8,-519.63 426.17,-526.21"/>
</g>
<!-- Filter_Cb -->
<g id="node5" class="node">
<title>Filter_Cb</title>
<ellipse fill="none" stroke="black" cx="484.73" cy="-600.6" rx="127.06" ry="37.45"/>
<text text-anchor="middle" x="484.73" y="-611.9" font-family="Times,serif" font-size="14.00">Filtrar C_b</text>
<text text-anchor="middle" x="484.73" y="-596.9" font-family="Times,serif" font-size="14.00">(remover b_M ≥ 0.75)</text>
<text text-anchor="middle" x="484.73" y="-581.9" font-family="Times,serif" font-size="14.00">(OpenMP Paralelizado)</text>
</g>
<!-- Gen_Cb&#45;&gt;Filter_Cb -->
<g id="edge4" class="edge">
<title>Gen_Cb&#45;&gt;Filter_Cb</title>
<path fill="none" stroke="black" d="M478.11,-673.85C478.83,-666 479.64,-657.13 480.45,-648.37"/>
<polygon fill="black" stroke="black" points="483.95,-648.47 481.38,-638.19 476.98,-647.83 483.95,-648.47"/>
</g>
<!-- Filter_Cb&#45;&gt;Gen_Cab -->
<g id="edge6" class="edge">
<title>Filter_Cb&#45;&gt;Gen_Cab</title>
<path fill="none" stroke="black" d="M405.51,-571.12C360,-554.76 303.13,-534.3 258.11,-518.11"/>
<polygon fill="black" stroke="black" points="259.28,-514.82 248.69,-514.73 256.91,-521.4 259.28,-514.82"/>
</g>
<!-- Filter_Cb&#45;&gt;Hash_Table -->
<g id="edge8" class="edge">
<title>Filter_Cb&#45;&gt;Hash_Table</title>
<path fill="none" stroke="black" d="M494.8,-563.02C497.1,-554.67 499.57,-545.68 501.97,-536.98"/>
<polygon fill="black" stroke="black" points="505.35,-537.89 504.63,-527.32 498.6,-536.03 505.35,-537.89"/>
</g>
<!-- Calc_ID -->
<g id="node7" class="node">
<title>Calc_ID</title>
<ellipse fill="none" stroke="black" cx="225.73" cy="-398.17" rx="215.56" ry="18"/>
<text text-anchor="middle" x="225.73" y="-394.47" font-family="Times,serif" font-size="14.00">Calcular {ID}&#39; = {ID}_{a_m} ∘ {ID}_{b_M}</text>
</g>
<!-- Gen_Cab&#45;&gt;Calc_ID -->
<g id="edge9" class="edge">
<title>Gen_Cab&#45;&gt;Calc_ID</title>
<path fill="none" stroke="black" d="M194.45,-462.77C200.2,-451.08 206.99,-437.28 212.77,-425.53"/>
<polygon fill="black" stroke="black" points="216.07,-426.75 217.34,-416.23 209.78,-423.66 216.07,-426.75"/>
</g>
<!-- Lookup -->
<g id="node9" class="node">
<title>Lookup</title>
<ellipse fill="none" stroke="black" cx="347.73" cy="-306.7" rx="121.74" ry="37.45"/>
<text text-anchor="middle" x="347.73" y="-318" font-family="Times,serif" font-size="14.00">Verificar existência</text>
<text text-anchor="middle" x="347.73" y="-303" font-family="Times,serif" font-size="14.00">do registro com {ID}&#39;</text>
<text text-anchor="middle" x="347.73" y="-288" font-family="Times,serif" font-size="14.00">(Consulta Otimizada)</text>
</g>
<!-- Calc_ID&#45;&gt;Lookup -->
<g id="edge10" class="edge">
<title>Calc_ID&#45;&gt;Lookup</title>
<path fill="none" stroke="black" d="M248.96,-380.13C261.62,-370.85 277.85,-358.94 293.49,-347.48"/>
<polygon fill="black" stroke="black" points="295.59,-350.27 301.59,-341.54 291.45,-344.63 295.59,-350.27"/>
</g>
<!-- Hash_Table&#45;&gt;Lookup -->
<g id="edge11" class="edge">
<title>Hash_Table&#45;&gt;Lookup</title>
<path fill="none" stroke="black" d="M498.26,-452.39C486.95,-429.99 470.45,-401.55 450.73,-380.17 439.2,-367.68 425.17,-356.09 411.23,-346.01"/>
<polygon fill="black" stroke="black" points="413.24,-343.15 403.05,-340.25 409.21,-348.87 413.24,-343.15"/>
</g>
<!-- Calc_f -->
<g id="node10" class="node">
<title>Calc_f</title>
<ellipse fill="none" stroke="black" cx="347.73" cy="-206.35" rx="161.44" ry="26.74"/>
<text text-anchor="middle" x="347.73" y="-210.15" font-family="Times,serif" font-size="14.00">Calcular f = a_m * b_M * p</text>
<text text-anchor="middle" x="347.73" y="-195.15" font-family="Times,serif" font-size="14.00">(OpenMP com Buffers Locais)</text>
</g>
<!-- Lookup&#45;&gt;Calc_f -->
<g id="edge12" class="edge">
<title>Lookup&#45;&gt;Calc_f</title>
<path fill="none" stroke="black" d="M347.73,-269.08C347.73,-260.71 347.73,-251.81 347.73,-243.46"/>
<polygon fill="black" stroke="black" points="351.23,-243.26 347.73,-233.26 344.23,-243.26 351.23,-243.26"/>
</g>
<!-- Sort -->
<g id="node11" class="node">
<title>Sort</title>
<ellipse fill="none" stroke="black" cx="347.73" cy="-116.61" rx="102.56" ry="26.74"/>
<text text-anchor="middle" x="347.73" y="-120.41" font-family="Times,serif" font-size="14.00">Ordenar registros</text>
<text text-anchor="middle" x="347.73" y="-105.41" font-family="Times,serif" font-size="14.00">baseados em f</text>
</g>
<!-- Calc_f&#45;&gt;Sort -->
<g id="edge13" class="edge">
<title>Calc_f&#45;&gt;Sort</title>
<path fill="none" stroke="black" d="M347.73,-179.03C347.73,-171.06 347.73,-162.17 347.73,-153.68"/>
<polygon fill="black" stroke="black" points="351.23,-153.61 347.73,-143.61 344.23,-153.61 351.23,-153.61"/>
</g>
<!-- CSV -->
<g id="node12" class="node">
<title>CSV</title>
<ellipse fill="none" stroke="black" cx="347.73" cy="-26.87" rx="130.63" ry="26.74"/>
<text text-anchor="middle" x="347.73" y="-30.67" font-family="Times,serif" font-size="14.00">Gerar arquivo .csv</text>
<text text-anchor="middle" x="347.73" y="-15.67" font-family="Times,serif" font-size="14.00">(ordem crescente por f)</text>
</g>
<!-- Sort&#45;&gt;CSV -->
<g id="edge14" class="edge">
<title>Sort&#45;&gt;CSV</title>
<path fill="none" stroke="black" d="M347.73,-89.29C347.73,-81.32 347.73,-72.43 347.73,-63.94"/>
<polygon fill="black" stroke="black" points="351.23,-63.87 347.73,-53.87 344.23,-63.87 351.23,-63.87"/>
</g>
</g>
</svg>
