<?xml version="1.0" encoding="UTF-8" standalone="no"?>
<!DOCTYPE svg PUBLIC "-//W3C//DTD SVG 1.1//EN"
 "http://www.w3.org/Graphics/SVG/1.1/DTD/svg11.dtd">
<!-- Generated by graphviz version 2.43.0 (0)
 -->
<!-- Title: Algoritmo_Paralelizado_MPI Pages: 1 -->
<svg width="694pt" height="731pt"
 viewBox="0.00 0.00 693.76 731.29" xmlns="http://www.w3.org/2000/svg" xmlns:xlink="http://www.w3.org/1999/xlink">
<g id="graph0" class="graph" transform="scale(1 1) rotate(0) translate(4 727.29)">
<title>Algoritmo_Paralelizado_MPI</title>
<polygon fill="white" stroke="transparent" points="-4,4 -4,-727.29 689.76,-727.29 689.76,4 -4,4"/>
<!-- Process_0 -->
<g id="node1" class="node">
<title>Process_0</title>
<ellipse fill="none" stroke="black" cx="279.76" cy="-696.42" rx="84.29" ry="26.74"/>
<text text-anchor="middle" x="279.76" y="-700.22" font-family="Times,serif" font-size="14.00">Processo 0</text>
<text text-anchor="middle" x="279.76" y="-685.22" font-family="Times,serif" font-size="14.00">(Coordenador)</text>
</g>
<!-- Filter_Ca -->
<g id="node2" class="node">
<title>Filter_Ca</title>
<ellipse fill="none" stroke="black" cx="135.76" cy="-595.08" rx="135.53" ry="37.45"/>
<text text-anchor="middle" x="135.76" y="-606.38" font-family="Times,serif" font-size="14.00">Filtrar C_a</text>
<text text-anchor="middle" x="135.76" y="-591.38" font-family="Times,serif" font-size="14.00">(remover a_m ≤ 0.25)</text>
<text text-anchor="middle" x="135.76" y="-576.38" font-family="Times,serif" font-size="14.00">(OpenMP no Processo 0)</text>
</g>
<!-- Process_0&#45;&gt;Filter_Ca -->
<g id="edge1" class="edge">
<title>Process_0&#45;&gt;Filter_Ca</title>
<path fill="none" stroke="black" d="M245.27,-671.63C229.76,-660.92 211.02,-647.99 193.46,-635.88"/>
<polygon fill="black" stroke="black" points="195.17,-632.81 184.95,-630.01 191.2,-638.57 195.17,-632.81"/>
</g>
<!-- Filter_Cb -->
<g id="node3" class="node">
<title>Filter_Cb</title>
<ellipse fill="none" stroke="black" cx="425.76" cy="-595.08" rx="135.53" ry="37.45"/>
<text text-anchor="middle" x="425.76" y="-606.38" font-family="Times,serif" font-size="14.00">Filtrar C_b</text>
<text text-anchor="middle" x="425.76" y="-591.38" font-family="Times,serif" font-size="14.00">(remover b_M ≥ 0.75)</text>
<text text-anchor="middle" x="425.76" y="-576.38" font-family="Times,serif" font-size="14.00">(OpenMP no Processo 0)</text>
</g>
<!-- Process_0&#45;&gt;Filter_Cb -->
<g id="edge2" class="edge">
<title>Process_0&#45;&gt;Filter_Cb</title>
<path fill="none" stroke="black" d="M314.36,-671.88C330.16,-661.13 349.31,-648.1 367.25,-635.89"/>
<polygon fill="black" stroke="black" points="369.64,-638.5 375.94,-629.98 365.7,-632.71 369.64,-638.5"/>
</g>
<!-- Distribute -->
<g id="node4" class="node">
<title>Distribute</title>
<ellipse fill="none" stroke="black" cx="279.76" cy="-483.12" rx="150.73" ry="37.45"/>
<text text-anchor="middle" x="279.76" y="-494.42" font-family="Times,serif" font-size="14.00">Distribuir Tasks</text>
<text text-anchor="middle" x="279.76" y="-479.42" font-family="Times,serif" font-size="14.00">(Database A Particionada +</text>
<text text-anchor="middle" x="279.76" y="-464.42" font-family="Times,serif" font-size="14.00">Database B Completa)</text>
</g>
<!-- Filter_Ca&#45;&gt;Distribute -->
<g id="edge3" class="edge">
<title>Filter_Ca&#45;&gt;Distribute</title>
<path fill="none" stroke="black" d="M180.93,-559.59C195.27,-548.64 211.26,-536.43 226.13,-525.07"/>
<polygon fill="black" stroke="black" points="228.44,-527.72 234.26,-518.87 224.19,-522.15 228.44,-527.72"/>
</g>
<!-- Filter_Cb&#45;&gt;Distribute -->
<g id="edge4" class="edge">
<title>Filter_Cb&#45;&gt;Distribute</title>
<path fill="none" stroke="black" d="M379.97,-559.59C365.43,-548.64 349.22,-536.43 334.14,-525.07"/>
<polygon fill="black" stroke="black" points="335.99,-522.09 325.9,-518.87 331.78,-527.68 335.99,-522.09"/>
</g>
<!-- Processes -->
<g id="node9" class="node">
<title>Processes</title>
<polygon fill="none" stroke="black" stroke-dasharray="5,2" points="384.26,-379.65 175.26,-379.65 175.26,-343.65 384.26,-343.65 384.26,-379.65"/>
<text text-anchor="middle" x="279.76" y="-357.95" font-family="Times,serif" font-size="14.00">Todos os Processos (1..n&#45;1)</text>
</g>
<!-- Distribute&#45;&gt;Processes -->
<g id="edge5" class="edge">
<title>Distribute&#45;&gt;Processes</title>
<path fill="none" stroke="black" d="M279.76,-445.63C279.76,-427.73 279.76,-406.53 279.76,-390.03"/>
<polygon fill="black" stroke="black" points="283.26,-389.96 279.76,-379.96 276.26,-389.96 283.26,-389.96"/>
<text text-anchor="middle" x="367.76" y="-416.45" font-family="Times,serif" font-size="14.00">MPI Scatter</text>
<text text-anchor="middle" x="367.76" y="-401.45" font-family="Times,serif" font-size="14.00">(Tarefas para Processos)</text>
</g>
<!-- Process_i -->
<g id="node5" class="node">
<title>Process_i</title>
<ellipse fill="none" stroke="black" cx="144.76" cy="-240.17" rx="132.46" ry="37.45"/>
<text text-anchor="middle" x="144.76" y="-251.47" font-family="Times,serif" font-size="14.00">Processo i</text>
<text text-anchor="middle" x="144.76" y="-236.47" font-family="Times,serif" font-size="14.00">(Geração e Cálculo de f)</text>
<text text-anchor="middle" x="144.76" y="-221.47" font-family="Times,serif" font-size="14.00">(OpenMP)</text>
</g>
<!-- Process_i&#45;&gt;Processes -->
<g id="edge10" class="edge">
<title>Process_i&#45;&gt;Processes</title>
<path fill="none" stroke="black" d="M225.39,-270.01C237.4,-276.98 248.75,-285.45 257.76,-295.65 267.07,-306.18 272.47,-320.8 275.59,-333.52"/>
<polygon fill="black" stroke="black" points="272.23,-334.55 277.71,-343.61 279.08,-333.11 272.23,-334.55"/>
<text text-anchor="middle" x="368.76" y="-306.95" font-family="Times,serif" font-size="14.00">Resultados Intermediários</text>
</g>
<!-- Gather -->
<g id="node6" class="node">
<title>Gather</title>
<ellipse fill="none" stroke="black" cx="492.76" cy="-240.17" rx="111.95" ry="26.74"/>
<text text-anchor="middle" x="492.76" y="-243.97" font-family="Times,serif" font-size="14.00">Receber Resultados</text>
<text text-anchor="middle" x="492.76" y="-228.97" font-family="Times,serif" font-size="14.00">Intermediários</text>
</g>
<!-- Sort -->
<g id="node7" class="node">
<title>Sort</title>
<ellipse fill="none" stroke="black" cx="492.76" cy="-128.22" rx="134.2" ry="37.45"/>
<text text-anchor="middle" x="492.76" y="-139.52" font-family="Times,serif" font-size="14.00">Ordenar registros</text>
<text text-anchor="middle" x="492.76" y="-124.52" font-family="Times,serif" font-size="14.00">baseados em f</text>
<text text-anchor="middle" x="492.76" y="-109.52" font-family="Times,serif" font-size="14.00">(QuickSort Paralelizado)</text>
</g>
<!-- Gather&#45;&gt;Sort -->
<g id="edge7" class="edge">
<title>Gather&#45;&gt;Sort</title>
<path fill="none" stroke="black" d="M492.76,-213.11C492.76,-201.99 492.76,-188.66 492.76,-175.93"/>
<polygon fill="black" stroke="black" points="496.26,-175.9 492.76,-165.9 489.26,-175.9 496.26,-175.9"/>
</g>
<!-- CSV -->
<g id="node8" class="node">
<title>CSV</title>
<ellipse fill="none" stroke="black" cx="492.76" cy="-26.87" rx="130.63" ry="26.74"/>
<text text-anchor="middle" x="492.76" y="-30.67" font-family="Times,serif" font-size="14.00">Gerar arquivo .csv</text>
<text text-anchor="middle" x="492.76" y="-15.67" font-family="Times,serif" font-size="14.00">(ordem crescente por f)</text>
</g>
<!-- Sort&#45;&gt;CSV -->
<g id="edge8" class="edge">
<title>Sort&#45;&gt;CSV</title>
<path fill="none" stroke="black" d="M492.76,-90.51C492.76,-81.86 492.76,-72.65 492.76,-64.03"/>
<polygon fill="black" stroke="black" points="496.26,-63.88 492.76,-53.89 489.26,-63.89 496.26,-63.88"/>
</g>
<!-- Processes&#45;&gt;Process_i -->
<g id="edge9" class="edge">
<title>Processes&#45;&gt;Process_i</title>
<path fill="none" stroke="black" d="M175.06,-356.81C125.69,-352.57 74.25,-343.78 58.76,-325.65 45.21,-309.78 55.27,-293.45 72.6,-279.43"/>
<polygon fill="black" stroke="black" points="75.08,-281.95 81.01,-273.17 70.9,-276.33 75.08,-281.95"/>
<text text-anchor="middle" x="158.26" y="-314.45" font-family="Times,serif" font-size="14.00">Distribuição Local</text>
<text text-anchor="middle" x="158.26" y="-299.45" font-family="Times,serif" font-size="14.00">(A Particionada + B Inteira)</text>
</g>
<!-- Processes&#45;&gt;Gather -->
<g id="edge6" class="edge">
<title>Processes&#45;&gt;Gather</title>
<path fill="none" stroke="black" d="M384.3,-350.81C420.22,-345.45 454.69,-337.43 467.76,-325.65 481.31,-313.44 487.66,-294.27 490.58,-277.28"/>
<polygon fill="black" stroke="black" points="494.09,-277.45 491.99,-267.06 487.16,-276.49 494.09,-277.45"/>
<text text-anchor="middle" x="585.76" y="-314.45" font-family="Times,serif" font-size="14.00">MPI Gather</text>
<text text-anchor="middle" x="585.76" y="-299.45" font-family="Times,serif" font-size="14.00">(Resultados Intermediários)</text>
</g>
</g>
</svg>
