<?xml version="1.0" encoding="UTF-8" standalone="no"?>
<!DOCTYPE svg PUBLIC "-//W3C//DTD SVG 1.1//EN"
 "http://www.w3.org/Graphics/SVG/1.1/DTD/svg11.dtd">
<!-- Generated by graphviz version 2.43.0 (0)
 -->
<!-- Title: Algoritmo_Paralelizado_MPI Pages: 1 -->
<svg width="766pt" height="731pt"
 viewBox="0.00 0.00 765.80 731.29" xmlns="http://www.w3.org/2000/svg" xmlns:xlink="http://www.w3.org/1999/xlink">
<g id="graph0" class="graph" transform="scale(1 1) rotate(0) translate(4 727.29)">
<title>Algoritmo_Paralelizado_MPI</title>
<polygon fill="white" stroke="transparent" points="-4,4 -4,-727.29 761.8,-727.29 761.8,4 -4,4"/>
<!-- Process_0 -->
<g id="node1" class="node">
<title>Process_0</title>
<ellipse fill="none" stroke="black" cx="352.8" cy="-696.42" rx="84.29" ry="26.74"/>
<text text-anchor="middle" x="352.8" y="-700.22" font-family="Times,serif" font-size="14.00">Processo 0</text>
<text text-anchor="middle" x="352.8" y="-685.22" font-family="Times,serif" font-size="14.00">(Coordenador)</text>
</g>
<!-- Filter_Ca -->
<g id="node2" class="node">
<title>Filter_Ca</title>
<ellipse fill="none" stroke="black" cx="208.8" cy="-595.08" rx="135.53" ry="37.45"/>
<text text-anchor="middle" x="208.8" y="-606.38" font-family="Times,serif" font-size="14.00">Filtrar C_a</text>
<text text-anchor="middle" x="208.8" y="-591.38" font-family="Times,serif" font-size="14.00">(remover a_m ≤ 0.25)</text>
<text text-anchor="middle" x="208.8" y="-576.38" font-family="Times,serif" font-size="14.00">(OpenMP no Processo 0)</text>
</g>
<!-- Process_0&#45;&gt;Filter_Ca -->
<g id="edge1" class="edge">
<title>Process_0&#45;&gt;Filter_Ca</title>
<path fill="none" stroke="black" d="M318.31,-671.63C302.79,-660.92 284.05,-647.99 266.49,-635.88"/>
<polygon fill="black" stroke="black" points="268.2,-632.81 257.99,-630.01 264.23,-638.57 268.2,-632.81"/>
</g>
<!-- Filter_Cb -->
<g id="node3" class="node">
<title>Filter_Cb</title>
<ellipse fill="none" stroke="black" cx="498.8" cy="-595.08" rx="135.53" ry="37.45"/>
<text text-anchor="middle" x="498.8" y="-606.38" font-family="Times,serif" font-size="14.00">Filtrar C_b</text>
<text text-anchor="middle" x="498.8" y="-591.38" font-family="Times,serif" font-size="14.00">(remover b_M ≥ 0.75)</text>
<text text-anchor="middle" x="498.8" y="-576.38" font-family="Times,serif" font-size="14.00">(OpenMP no Processo 0)</text>
</g>
<!-- Process_0&#45;&gt;Filter_Cb -->
<g id="edge2" class="edge">
<title>Process_0&#45;&gt;Filter_Cb</title>
<path fill="none" stroke="black" d="M387.4,-671.88C403.2,-661.13 422.35,-648.1 440.28,-635.89"/>
<polygon fill="black" stroke="black" points="442.67,-638.5 448.97,-629.98 438.73,-632.71 442.67,-638.5"/>
</g>
<!-- Distribute -->
<g id="node4" class="node">
<title>Distribute</title>
<ellipse fill="none" stroke="black" cx="352.8" cy="-483.12" rx="150.73" ry="37.45"/>
<text text-anchor="middle" x="352.8" y="-494.42" font-family="Times,serif" font-size="14.00">Distribuir Tasks</text>
<text text-anchor="middle" x="352.8" y="-479.42" font-family="Times,serif" font-size="14.00">(Database A Particionada +</text>
<text text-anchor="middle" x="352.8" y="-464.42" font-family="Times,serif" font-size="14.00">Database B Completa)</text>
</g>
<!-- Filter_Ca&#45;&gt;Distribute -->
<g id="edge3" class="edge">
<title>Filter_Ca&#45;&gt;Distribute</title>
<path fill="none" stroke="black" d="M253.96,-559.59C268.3,-548.64 284.29,-536.43 299.17,-525.07"/>
<polygon fill="black" stroke="black" points="301.47,-527.72 307.3,-518.87 297.22,-522.15 301.47,-527.72"/>
</g>
<!-- Filter_Cb&#45;&gt;Distribute -->
<g id="edge4" class="edge">
<title>Filter_Cb&#45;&gt;Distribute</title>
<path fill="none" stroke="black" d="M453,-559.59C438.47,-548.64 422.25,-536.43 407.17,-525.07"/>
<polygon fill="black" stroke="black" points="409.03,-522.09 398.93,-518.87 404.81,-527.68 409.03,-522.09"/>
</g>
<!-- Processes -->
<g id="node9" class="node">
<title>Processes</title>
<polygon fill="none" stroke="black" stroke-dasharray="5,2" points="457.3,-379.65 248.3,-379.65 248.3,-343.65 457.3,-343.65 457.3,-379.65"/>
<text text-anchor="middle" x="352.8" y="-357.95" font-family="Times,serif" font-size="14.00">Todos os Processos (1..n&#45;1)</text>
</g>
<!-- Distribute&#45;&gt;Processes -->
<g id="edge5" class="edge">
<title>Distribute&#45;&gt;Processes</title>
<path fill="none" stroke="black" d="M352.8,-445.63C352.8,-427.73 352.8,-406.53 352.8,-390.03"/>
<polygon fill="black" stroke="black" points="356.3,-389.96 352.8,-379.96 349.3,-389.96 356.3,-389.96"/>
<text text-anchor="middle" x="440.8" y="-416.45" font-family="Times,serif" font-size="14.00">MPI Scatter</text>
<text text-anchor="middle" x="440.8" y="-401.45" font-family="Times,serif" font-size="14.00">(Tarefas para Processos)</text>
</g>
<!-- Process_i -->
<g id="node5" class="node">
<title>Process_i</title>
<ellipse fill="none" stroke="black" cx="188.8" cy="-229.56" rx="188.6" ry="48.17"/>
<text text-anchor="middle" x="188.8" y="-248.36" font-family="Times,serif" font-size="14.00">Processo i</text>
<text text-anchor="middle" x="188.8" y="-233.36" font-family="Times,serif" font-size="14.00">(Geração e Cálculo de f)</text>
<text text-anchor="middle" x="188.8" y="-218.36" font-family="Times,serif" font-size="14.00">(OpenMP)</text>
<text text-anchor="middle" x="188.8" y="-203.36" font-family="Times,serif" font-size="14.00">(Busca otimizada com uso de hash)</text>
</g>
<!-- Process_i&#45;&gt;Processes -->
<g id="edge10" class="edge">
<title>Process_i&#45;&gt;Processes</title>
<path fill="none" stroke="black" d="M297.97,-268.95C310.11,-276.44 321.45,-285.27 330.8,-295.65 340.21,-306.08 345.62,-320.71 348.71,-333.44"/>
<polygon fill="black" stroke="black" points="345.35,-334.47 350.81,-343.56 352.21,-333.05 345.35,-334.47"/>
<text text-anchor="middle" x="441.8" y="-306.95" font-family="Times,serif" font-size="14.00">Resultados Intermediários</text>
</g>
<!-- Gather -->
<g id="node6" class="node">
<title>Gather</title>
<ellipse fill="none" stroke="black" cx="565.8" cy="-229.56" rx="111.95" ry="26.74"/>
<text text-anchor="middle" x="565.8" y="-233.36" font-family="Times,serif" font-size="14.00">Receber Resultados</text>
<text text-anchor="middle" x="565.8" y="-218.36" font-family="Times,serif" font-size="14.00">Intermediários</text>
</g>
<!-- Sort -->
<g id="node7" class="node">
<title>Sort</title>
<ellipse fill="none" stroke="black" cx="565.8" cy="-117.61" rx="102.56" ry="26.74"/>
<text text-anchor="middle" x="565.8" y="-121.41" font-family="Times,serif" font-size="14.00">Ordenar registros</text>
<text text-anchor="middle" x="565.8" y="-106.41" font-family="Times,serif" font-size="14.00">baseados em f</text>
</g>
<!-- Gather&#45;&gt;Sort -->
<g id="edge7" class="edge">
<title>Gather&#45;&gt;Sort</title>
<path fill="none" stroke="black" d="M565.8,-202.51C565.8,-188.27 565.8,-170.4 565.8,-154.83"/>
<polygon fill="black" stroke="black" points="569.3,-154.48 565.8,-144.48 562.3,-154.48 569.3,-154.48"/>
</g>
<!-- CSV -->
<g id="node8" class="node">
<title>CSV</title>
<ellipse fill="none" stroke="black" cx="565.8" cy="-26.87" rx="130.63" ry="26.74"/>
<text text-anchor="middle" x="565.8" y="-30.67" font-family="Times,serif" font-size="14.00">Gerar arquivo .csv</text>
<text text-anchor="middle" x="565.8" y="-15.67" font-family="Times,serif" font-size="14.00">(ordem crescente por f)</text>
</g>
<!-- Sort&#45;&gt;CSV -->
<g id="edge8" class="edge">
<title>Sort&#45;&gt;CSV</title>
<path fill="none" stroke="black" d="M565.8,-90.47C565.8,-82.16 565.8,-72.82 565.8,-63.95"/>
<polygon fill="black" stroke="black" points="569.3,-63.83 565.8,-53.83 562.3,-63.83 569.3,-63.83"/>
</g>
<!-- Processes&#45;&gt;Process_i -->
<g id="edge9" class="edge">
<title>Processes&#45;&gt;Process_i</title>
<path fill="none" stroke="black" d="M248.09,-356.81C198.73,-352.57 147.28,-343.78 131.8,-325.65 121.24,-313.28 123.85,-298.73 132.1,-284.77"/>
<polygon fill="black" stroke="black" points="135.2,-286.43 137.89,-276.19 129.4,-282.52 135.2,-286.43"/>
<text text-anchor="middle" x="231.3" y="-314.45" font-family="Times,serif" font-size="14.00">Distribuição Local</text>
<text text-anchor="middle" x="231.3" y="-299.45" font-family="Times,serif" font-size="14.00">(A Particionada + B Inteira)</text>
</g>
<!-- Processes&#45;&gt;Gather -->
<g id="edge6" class="edge">
<title>Processes&#45;&gt;Gather</title>
<path fill="none" stroke="black" d="M457.52,-351.02C493.46,-345.69 527.91,-337.63 540.8,-325.65 556.87,-310.7 563.11,-286.78 565.33,-266.67"/>
<polygon fill="black" stroke="black" points="568.83,-266.83 566.16,-256.57 561.85,-266.25 568.83,-266.83"/>
<text text-anchor="middle" x="657.8" y="-314.45" font-family="Times,serif" font-size="14.00">MPI Gather</text>
<text text-anchor="middle" x="657.8" y="-299.45" font-family="Times,serif" font-size="14.00">(Resultados Intermediários)</text>
</g>
</g>
</svg>
