<?xml version="1.0" encoding="UTF-8" standalone="no"?>
<!DOCTYPE svg PUBLIC "-//W3C//DTD SVG 1.1//EN"
 "http://www.w3.org/Graphics/SVG/1.1/DTD/svg11.dtd">
<!-- Generated by graphviz version 2.43.0 (0)
 -->
<!-- Title: Algoritmo_Paralelizado_MPI_CUDA Pages: 1 -->
<svg width="815pt" height="724pt"
 viewBox="0.00 0.00 814.58 724.08" xmlns="http://www.w3.org/2000/svg" xmlns:xlink="http://www.w3.org/1999/xlink">
<g id="graph0" class="graph" transform="scale(1 1) rotate(0) translate(4 720.08)">
<title>Algoritmo_Paralelizado_MPI_CUDA</title>
<polygon fill="white" stroke="transparent" points="-4,4 -4,-720.08 810.58,-720.08 810.58,4 -4,4"/>
<!-- Process_0 -->
<g id="node1" class="node">
<title>Process_0</title>
<ellipse fill="none" stroke="black" cx="341.58" cy="-689.21" rx="84.29" ry="26.74"/>
<text text-anchor="middle" x="341.58" y="-693.01" font-family="Times,serif" font-size="14.00">Processo 0</text>
<text text-anchor="middle" x="341.58" y="-678.01" font-family="Times,serif" font-size="14.00">(Coordenador)</text>
</g>
<!-- CUDA_Filter_Ca -->
<g id="node2" class="node">
<title>CUDA_Filter_Ca</title>
<ellipse fill="none" stroke="black" cx="210.58" cy="-587.86" rx="122.16" ry="37.45"/>
<text text-anchor="middle" x="210.58" y="-599.16" font-family="Times,serif" font-size="14.00">Filtrar C_a</text>
<text text-anchor="middle" x="210.58" y="-584.16" font-family="Times,serif" font-size="14.00">(remover a_m ≤ 0.25)</text>
<text text-anchor="middle" x="210.58" y="-569.16" font-family="Times,serif" font-size="14.00">(CUDA &#45; GPU)</text>
</g>
<!-- Process_0&#45;&gt;CUDA_Filter_Ca -->
<g id="edge1" class="edge">
<title>Process_0&#45;&gt;CUDA_Filter_Ca</title>
<path fill="none" stroke="black" d="M309.86,-664.16C295.94,-653.6 279.2,-640.91 263.47,-628.98"/>
<polygon fill="black" stroke="black" points="265.44,-626.08 255.36,-622.83 261.21,-631.66 265.44,-626.08"/>
</g>
<!-- CUDA_Filter_Cb -->
<g id="node3" class="node">
<title>CUDA_Filter_Cb</title>
<ellipse fill="none" stroke="black" cx="473.58" cy="-587.86" rx="123.07" ry="37.45"/>
<text text-anchor="middle" x="473.58" y="-599.16" font-family="Times,serif" font-size="14.00">Filtrar C_b</text>
<text text-anchor="middle" x="473.58" y="-584.16" font-family="Times,serif" font-size="14.00">(remover b_M ≥ 0.75)</text>
<text text-anchor="middle" x="473.58" y="-569.16" font-family="Times,serif" font-size="14.00">(CUDA &#45; GPU)</text>
</g>
<!-- Process_0&#45;&gt;CUDA_Filter_Cb -->
<g id="edge2" class="edge">
<title>Process_0&#45;&gt;CUDA_Filter_Cb</title>
<path fill="none" stroke="black" d="M373.53,-664.16C387.56,-653.6 404.43,-640.91 420.27,-628.98"/>
<polygon fill="black" stroke="black" points="422.56,-631.64 428.45,-622.83 418.35,-626.04 422.56,-631.64"/>
</g>
<!-- Distribute -->
<g id="node4" class="node">
<title>Distribute</title>
<ellipse fill="none" stroke="black" cx="341.58" cy="-475.91" rx="166.75" ry="37.45"/>
<text text-anchor="middle" x="341.58" y="-487.21" font-family="Times,serif" font-size="14.00">Distribuir Tasks</text>
<text text-anchor="middle" x="341.58" y="-472.21" font-family="Times,serif" font-size="14.00">(Database A Particionada +</text>
<text text-anchor="middle" x="341.58" y="-457.21" font-family="Times,serif" font-size="14.00">Database B Completa via MPI)</text>
</g>
<!-- CUDA_Filter_Ca&#45;&gt;Distribute -->
<g id="edge3" class="edge">
<title>CUDA_Filter_Ca&#45;&gt;Distribute</title>
<path fill="none" stroke="black" d="M251.67,-552.38C264.22,-541.84 278.17,-530.13 291.26,-519.15"/>
<polygon fill="black" stroke="black" points="293.87,-521.52 299.28,-512.41 289.37,-516.16 293.87,-521.52"/>
</g>
<!-- CUDA_Filter_Cb&#45;&gt;Distribute -->
<g id="edge4" class="edge">
<title>CUDA_Filter_Cb&#45;&gt;Distribute</title>
<path fill="none" stroke="black" d="M432.17,-552.38C419.41,-541.74 405.21,-529.91 391.91,-518.83"/>
<polygon fill="black" stroke="black" points="394.12,-516.12 384.2,-512.41 389.64,-521.5 394.12,-516.12"/>
</g>
<!-- Processes -->
<g id="node9" class="node">
<title>Processes</title>
<polygon fill="none" stroke="black" stroke-dasharray="5,2" points="446.08,-372.43 237.08,-372.43 237.08,-336.43 446.08,-336.43 446.08,-372.43"/>
<text text-anchor="middle" x="341.58" y="-350.73" font-family="Times,serif" font-size="14.00">Todos os Processos (1..n&#45;1)</text>
</g>
<!-- Distribute&#45;&gt;Processes -->
<g id="edge5" class="edge">
<title>Distribute&#45;&gt;Processes</title>
<path fill="none" stroke="black" d="M341.58,-438.41C341.58,-420.51 341.58,-399.31 341.58,-382.82"/>
<polygon fill="black" stroke="black" points="345.08,-382.75 341.58,-372.75 338.08,-382.75 345.08,-382.75"/>
<text text-anchor="middle" x="429.58" y="-409.23" font-family="Times,serif" font-size="14.00">MPI Scatter</text>
<text text-anchor="middle" x="429.58" y="-394.23" font-family="Times,serif" font-size="14.00">(Tarefas para Processos)</text>
</g>
<!-- Process_i -->
<g id="node5" class="node">
<title>Process_i</title>
<ellipse fill="none" stroke="black" cx="196.58" cy="-232.96" rx="196.65" ry="37.45"/>
<text text-anchor="middle" x="196.58" y="-244.26" font-family="Times,serif" font-size="14.00">Processo i</text>
<text text-anchor="middle" x="196.58" y="-229.26" font-family="Times,serif" font-size="14.00">(Geração e Cálculo de f)</text>
<text text-anchor="middle" x="196.58" y="-214.26" font-family="Times,serif" font-size="14.00">(OpenMP em CPU + CUDA em GPU)</text>
</g>
<!-- Process_i&#45;&gt;Processes -->
<g id="edge8" class="edge">
<title>Process_i&#45;&gt;Processes</title>
<path fill="none" stroke="black" d="M291.42,-265.89C301.83,-272.19 311.54,-279.64 319.58,-288.43 329.05,-298.81 334.47,-313.43 337.55,-326.17"/>
<polygon fill="black" stroke="black" points="334.19,-327.21 339.63,-336.3 341.05,-325.8 334.19,-327.21"/>
<text text-anchor="middle" x="460.08" y="-299.73" font-family="Times,serif" font-size="14.00">Resultados Intermediários via MPI</text>
</g>
<!-- CUDA_Processing -->
<g id="node10" class="node">
<title>CUDA_Processing</title>
<ellipse fill="none" stroke="black" cx="296.58" cy="-117.61" rx="135.11" ry="26.74"/>
<text text-anchor="middle" x="296.58" y="-121.41" font-family="Times,serif" font-size="14.00">Filtragem e Combinação</text>
<text text-anchor="middle" x="296.58" y="-106.41" font-family="Times,serif" font-size="14.00">(CUDA &#45; GPU)</text>
</g>
<!-- Process_i&#45;&gt;CUDA_Processing -->
<g id="edge9" class="edge">
<title>Process_i&#45;&gt;CUDA_Processing</title>
<path fill="none" stroke="black" d="M176.89,-195.59C173.46,-184.24 172.86,-172.18 179.58,-162.48 184.88,-154.82 191.71,-148.5 199.38,-143.27"/>
<polygon fill="black" stroke="black" points="201.29,-146.21 208.02,-138.03 197.66,-140.23 201.29,-146.21"/>
<text text-anchor="middle" x="255.08" y="-166.28" font-family="Times,serif" font-size="14.00">Processamento Local</text>
</g>
<!-- Gather -->
<g id="node6" class="node">
<title>Gather</title>
<ellipse fill="none" stroke="black" cx="613.58" cy="-232.96" rx="128.89" ry="26.74"/>
<text text-anchor="middle" x="613.58" y="-236.76" font-family="Times,serif" font-size="14.00">Receber Resultados</text>
<text text-anchor="middle" x="613.58" y="-221.76" font-family="Times,serif" font-size="14.00">Intermediários via MPI</text>
</g>
<!-- Sort -->
<g id="node7" class="node">
<title>Sort</title>
<ellipse fill="none" stroke="black" cx="613.58" cy="-117.61" rx="102.56" ry="26.74"/>
<text text-anchor="middle" x="613.58" y="-121.41" font-family="Times,serif" font-size="14.00">Ordenar registros</text>
<text text-anchor="middle" x="613.58" y="-106.41" font-family="Times,serif" font-size="14.00">baseados em f</text>
</g>
<!-- Gather&#45;&gt;Sort -->
<g id="edge11" class="edge">
<title>Gather&#45;&gt;Sort</title>
<path fill="none" stroke="black" d="M613.58,-205.95C613.58,-190.83 613.58,-171.55 613.58,-154.94"/>
<polygon fill="black" stroke="black" points="617.08,-154.49 613.58,-144.49 610.08,-154.49 617.08,-154.49"/>
</g>
<!-- CSV -->
<g id="node8" class="node">
<title>CSV</title>
<ellipse fill="none" stroke="black" cx="613.58" cy="-26.87" rx="130.63" ry="26.74"/>
<text text-anchor="middle" x="613.58" y="-30.67" font-family="Times,serif" font-size="14.00">Gerar arquivo .csv</text>
<text text-anchor="middle" x="613.58" y="-15.67" font-family="Times,serif" font-size="14.00">(ordem crescente por f)</text>
</g>
<!-- Sort&#45;&gt;CSV -->
<g id="edge12" class="edge">
<title>Sort&#45;&gt;CSV</title>
<path fill="none" stroke="black" d="M613.58,-90.47C613.58,-82.16 613.58,-72.82 613.58,-63.95"/>
<polygon fill="black" stroke="black" points="617.08,-63.83 613.58,-53.83 610.08,-63.83 617.08,-63.83"/>
</g>
<!-- Processes&#45;&gt;Process_i -->
<g id="edge7" class="edge">
<title>Processes&#45;&gt;Process_i</title>
<path fill="none" stroke="black" d="M236.87,-349.59C187.51,-345.35 136.06,-336.56 120.58,-318.43 108.52,-304.32 115.59,-289.17 129.37,-275.65"/>
<polygon fill="black" stroke="black" points="131.98,-278.01 137.11,-268.74 127.32,-272.78 131.98,-278.01"/>
<text text-anchor="middle" x="220.08" y="-307.23" font-family="Times,serif" font-size="14.00">Distribuição Local</text>
<text text-anchor="middle" x="220.08" y="-292.23" font-family="Times,serif" font-size="14.00">(A Particionada + B Inteira)</text>
</g>
<!-- Processes&#45;&gt;Gather -->
<g id="edge6" class="edge">
<title>Processes&#45;&gt;Gather</title>
<path fill="none" stroke="black" d="M446.36,-349.73C503.66,-345.6 567.22,-336.86 588.58,-318.43 602.38,-306.52 608.75,-287.37 611.62,-270.32"/>
<polygon fill="black" stroke="black" points="615.13,-270.43 612.98,-260.05 608.19,-269.51 615.13,-270.43"/>
<text text-anchor="middle" x="706.58" y="-307.23" font-family="Times,serif" font-size="14.00">MPI Gather</text>
<text text-anchor="middle" x="706.58" y="-292.23" font-family="Times,serif" font-size="14.00">(Resultados Intermediários)</text>
</g>
<!-- CUDA_Processing&#45;&gt;Process_i -->
<g id="edge10" class="edge">
<title>CUDA_Processing&#45;&gt;Process_i</title>
<path fill="none" stroke="black" d="M324.44,-143.99C332.66,-154.55 337.76,-166.81 330.58,-177.48 325.99,-184.29 320.39,-190.25 314.11,-195.47"/>
<polygon fill="black" stroke="black" points="311.72,-192.89 305.82,-201.68 315.92,-198.49 311.72,-192.89"/>
<text text-anchor="middle" x="429.58" y="-166.28" font-family="Times,serif" font-size="14.00">Resultados Intermediários</text>
</g>
</g>
</svg>
