<?xml version="1.0" encoding="UTF-8" standalone="no"?>
<!DOCTYPE svg PUBLIC "-//W3C//DTD SVG 1.1//EN"
 "http://www.w3.org/Graphics/SVG/1.1/DTD/svg11.dtd">
<!-- Generated by graphviz version 2.43.0 (0)
 -->
<!-- Title: Algoritmo_Paralelizado_MPI_CUDA Pages: 1 -->
<svg width="826pt" height="745pt"
 viewBox="0.00 0.00 825.58 745.29" xmlns="http://www.w3.org/2000/svg" xmlns:xlink="http://www.w3.org/1999/xlink">
<g id="graph0" class="graph" transform="scale(1 1) rotate(0) translate(4 741.29)">
<title>Algoritmo_Paralelizado_MPI_CUDA</title>
<polygon fill="white" stroke="transparent" points="-4,4 -4,-741.29 821.58,-741.29 821.58,4 -4,4"/>
<!-- Process_0 -->
<g id="node1" class="node">
<title>Process_0</title>
<ellipse fill="none" stroke="black" cx="351.58" cy="-710.42" rx="84.29" ry="26.74"/>
<text text-anchor="middle" x="351.58" y="-714.22" font-family="Times,serif" font-size="14.00">Processo 0</text>
<text text-anchor="middle" x="351.58" y="-699.22" font-family="Times,serif" font-size="14.00">(Coordenador)</text>
</g>
<!-- CUDA_Filter_Ca -->
<g id="node2" class="node">
<title>CUDA_Filter_Ca</title>
<ellipse fill="none" stroke="black" cx="220.58" cy="-609.08" rx="122.16" ry="37.45"/>
<text text-anchor="middle" x="220.58" y="-620.38" font-family="Times,serif" font-size="14.00">Filtrar C_a</text>
<text text-anchor="middle" x="220.58" y="-605.38" font-family="Times,serif" font-size="14.00">(remover a_m ≤ 0.25)</text>
<text text-anchor="middle" x="220.58" y="-590.38" font-family="Times,serif" font-size="14.00">(CUDA &#45; GPU)</text>
</g>
<!-- Process_0&#45;&gt;CUDA_Filter_Ca -->
<g id="edge1" class="edge">
<title>Process_0&#45;&gt;CUDA_Filter_Ca</title>
<path fill="none" stroke="black" d="M319.86,-685.37C305.94,-674.81 289.2,-662.12 273.47,-650.19"/>
<polygon fill="black" stroke="black" points="275.44,-647.29 265.36,-644.04 271.21,-652.87 275.44,-647.29"/>
</g>
<!-- CUDA_Filter_Cb -->
<g id="node3" class="node">
<title>CUDA_Filter_Cb</title>
<ellipse fill="none" stroke="black" cx="483.58" cy="-609.08" rx="123.07" ry="37.45"/>
<text text-anchor="middle" x="483.58" y="-620.38" font-family="Times,serif" font-size="14.00">Filtrar C_b</text>
<text text-anchor="middle" x="483.58" y="-605.38" font-family="Times,serif" font-size="14.00">(remover b_M ≥ 0.75)</text>
<text text-anchor="middle" x="483.58" y="-590.38" font-family="Times,serif" font-size="14.00">(CUDA &#45; GPU)</text>
</g>
<!-- Process_0&#45;&gt;CUDA_Filter_Cb -->
<g id="edge2" class="edge">
<title>Process_0&#45;&gt;CUDA_Filter_Cb</title>
<path fill="none" stroke="black" d="M383.53,-685.37C397.56,-674.81 414.43,-662.12 430.27,-650.19"/>
<polygon fill="black" stroke="black" points="432.56,-652.85 438.45,-644.04 428.35,-647.26 432.56,-652.85"/>
</g>
<!-- Distribute -->
<g id="node4" class="node">
<title>Distribute</title>
<ellipse fill="none" stroke="black" cx="351.58" cy="-497.12" rx="166.75" ry="37.45"/>
<text text-anchor="middle" x="351.58" y="-508.42" font-family="Times,serif" font-size="14.00">Distribuir Tasks</text>
<text text-anchor="middle" x="351.58" y="-493.42" font-family="Times,serif" font-size="14.00">(Database A Particionada +</text>
<text text-anchor="middle" x="351.58" y="-478.42" font-family="Times,serif" font-size="14.00">Database B Completa via MPI)</text>
</g>
<!-- CUDA_Filter_Ca&#45;&gt;Distribute -->
<g id="edge3" class="edge">
<title>CUDA_Filter_Ca&#45;&gt;Distribute</title>
<path fill="none" stroke="black" d="M261.67,-573.59C274.22,-563.05 288.17,-551.35 301.26,-540.36"/>
<polygon fill="black" stroke="black" points="303.87,-542.74 309.28,-533.63 299.37,-537.37 303.87,-542.74"/>
</g>
<!-- CUDA_Filter_Cb&#45;&gt;Distribute -->
<g id="edge4" class="edge">
<title>CUDA_Filter_Cb&#45;&gt;Distribute</title>
<path fill="none" stroke="black" d="M442.17,-573.59C429.41,-562.95 415.21,-551.13 401.91,-540.05"/>
<polygon fill="black" stroke="black" points="404.12,-537.34 394.2,-533.63 399.64,-542.72 404.12,-537.34"/>
</g>
<!-- Processes -->
<g id="node9" class="node">
<title>Processes</title>
<polygon fill="none" stroke="black" stroke-dasharray="5,2" points="456.08,-393.65 247.08,-393.65 247.08,-357.65 456.08,-357.65 456.08,-393.65"/>
<text text-anchor="middle" x="351.58" y="-371.95" font-family="Times,serif" font-size="14.00">Todos os Processos (1..n&#45;1)</text>
</g>
<!-- Distribute&#45;&gt;Processes -->
<g id="edge5" class="edge">
<title>Distribute&#45;&gt;Processes</title>
<path fill="none" stroke="black" d="M351.58,-459.63C351.58,-441.73 351.58,-420.53 351.58,-404.03"/>
<polygon fill="black" stroke="black" points="355.08,-403.96 351.58,-393.96 348.08,-403.96 355.08,-403.96"/>
<text text-anchor="middle" x="439.58" y="-430.45" font-family="Times,serif" font-size="14.00">MPI Scatter</text>
<text text-anchor="middle" x="439.58" y="-415.45" font-family="Times,serif" font-size="14.00">(Tarefas para Processos)</text>
</g>
<!-- Process_i -->
<g id="node5" class="node">
<title>Process_i</title>
<ellipse fill="none" stroke="black" cx="196.58" cy="-254.17" rx="196.65" ry="37.45"/>
<text text-anchor="middle" x="196.58" y="-265.47" font-family="Times,serif" font-size="14.00">Processo i</text>
<text text-anchor="middle" x="196.58" y="-250.47" font-family="Times,serif" font-size="14.00">(Geração e Cálculo de f)</text>
<text text-anchor="middle" x="196.58" y="-235.47" font-family="Times,serif" font-size="14.00">(OpenMP em CPU + CUDA em GPU)</text>
</g>
<!-- Process_i&#45;&gt;Processes -->
<g id="edge8" class="edge">
<title>Process_i&#45;&gt;Processes</title>
<path fill="none" stroke="black" d="M299.08,-286.18C310.34,-292.63 320.86,-300.37 329.58,-309.65 339.2,-319.89 344.62,-334.5 347.68,-347.27"/>
<polygon fill="black" stroke="black" points="344.32,-348.32 349.73,-357.43 351.18,-346.93 344.32,-348.32"/>
<text text-anchor="middle" x="470.08" y="-320.95" font-family="Times,serif" font-size="14.00">Resultados Intermediários via MPI</text>
</g>
<!-- CUDA_Processing -->
<g id="node10" class="node">
<title>CUDA_Processing</title>
<ellipse fill="none" stroke="black" cx="283.58" cy="-128.22" rx="181.95" ry="37.45"/>
<text text-anchor="middle" x="283.58" y="-139.52" font-family="Times,serif" font-size="14.00">Filtragem e Combinação</text>
<text text-anchor="middle" x="283.58" y="-124.52" font-family="Times,serif" font-size="14.00">(CUDA &#45; GPU)</text>
<text text-anchor="middle" x="283.58" y="-109.52" font-family="Times,serif" font-size="14.00">Busca otimizada com uso de hash</text>
</g>
<!-- Process_i&#45;&gt;CUDA_Processing -->
<g id="edge9" class="edge">
<title>Process_i&#45;&gt;CUDA_Processing</title>
<path fill="none" stroke="black" d="M177.41,-216.56C174.21,-205.44 173.6,-193.57 179.58,-183.69 182.97,-178.09 187.15,-173.03 191.87,-168.47"/>
<polygon fill="black" stroke="black" points="194.41,-170.9 199.69,-161.71 189.83,-165.6 194.41,-170.9"/>
<text text-anchor="middle" x="255.08" y="-187.49" font-family="Times,serif" font-size="14.00">Processamento Local</text>
</g>
<!-- Gather -->
<g id="node6" class="node">
<title>Gather</title>
<ellipse fill="none" stroke="black" cx="623.58" cy="-254.17" rx="128.89" ry="26.74"/>
<text text-anchor="middle" x="623.58" y="-257.97" font-family="Times,serif" font-size="14.00">Receber Resultados</text>
<text text-anchor="middle" x="623.58" y="-242.97" font-family="Times,serif" font-size="14.00">Intermediários via MPI</text>
</g>
<!-- Sort -->
<g id="node7" class="node">
<title>Sort</title>
<ellipse fill="none" stroke="black" cx="623.58" cy="-128.22" rx="102.56" ry="26.74"/>
<text text-anchor="middle" x="623.58" y="-132.02" font-family="Times,serif" font-size="14.00">Ordenar registros</text>
<text text-anchor="middle" x="623.58" y="-117.02" font-family="Times,serif" font-size="14.00">baseados em f</text>
</g>
<!-- Gather&#45;&gt;Sort -->
<g id="edge11" class="edge">
<title>Gather&#45;&gt;Sort</title>
<path fill="none" stroke="black" d="M623.58,-227.19C623.58,-209.25 623.58,-185.17 623.58,-165.37"/>
<polygon fill="black" stroke="black" points="627.08,-165.17 623.58,-155.17 620.08,-165.17 627.08,-165.17"/>
</g>
<!-- CSV -->
<g id="node8" class="node">
<title>CSV</title>
<ellipse fill="none" stroke="black" cx="623.58" cy="-26.87" rx="130.63" ry="26.74"/>
<text text-anchor="middle" x="623.58" y="-30.67" font-family="Times,serif" font-size="14.00">Gerar arquivo .csv</text>
<text text-anchor="middle" x="623.58" y="-15.67" font-family="Times,serif" font-size="14.00">(ordem crescente por f)</text>
</g>
<!-- Sort&#45;&gt;CSV -->
<g id="edge12" class="edge">
<title>Sort&#45;&gt;CSV</title>
<path fill="none" stroke="black" d="M623.58,-101.11C623.58,-89.71 623.58,-76.14 623.58,-63.8"/>
<polygon fill="black" stroke="black" points="627.08,-63.8 623.58,-53.8 620.08,-63.8 627.08,-63.8"/>
</g>
<!-- Processes&#45;&gt;Process_i -->
<g id="edge7" class="edge">
<title>Processes&#45;&gt;Process_i</title>
<path fill="none" stroke="black" d="M246.87,-370.81C197.51,-366.57 146.06,-357.78 130.58,-339.65 119.26,-326.39 125.05,-311.53 136.96,-298.01"/>
<polygon fill="black" stroke="black" points="139.65,-300.26 144.13,-290.65 134.64,-295.37 139.65,-300.26"/>
<text text-anchor="middle" x="230.08" y="-328.45" font-family="Times,serif" font-size="14.00">Distribuição Local</text>
<text text-anchor="middle" x="230.08" y="-313.45" font-family="Times,serif" font-size="14.00">(A Particionada + B Inteira)</text>
</g>
<!-- Processes&#45;&gt;Gather -->
<g id="edge6" class="edge">
<title>Processes&#45;&gt;Gather</title>
<path fill="none" stroke="black" d="M456.36,-370.95C513.66,-366.81 577.22,-358.07 598.58,-339.65 612.38,-327.73 618.75,-308.59 621.62,-291.53"/>
<polygon fill="black" stroke="black" points="625.13,-291.64 622.98,-281.27 618.19,-290.72 625.13,-291.64"/>
<text text-anchor="middle" x="717.58" y="-328.45" font-family="Times,serif" font-size="14.00">MPI Gather</text>
<text text-anchor="middle" x="717.58" y="-313.45" font-family="Times,serif" font-size="14.00">(Resultados Intermediários)</text>
</g>
<!-- CUDA_Processing&#45;&gt;Process_i -->
<g id="edge10" class="edge">
<title>CUDA_Processing&#45;&gt;Process_i</title>
<path fill="none" stroke="black" d="M326.2,-164.9C334.17,-175.74 337.97,-187.7 330.58,-198.69 325.99,-205.51 320.39,-211.47 314.11,-216.68"/>
<polygon fill="black" stroke="black" points="311.72,-214.1 305.82,-222.9 315.92,-219.7 311.72,-214.1"/>
<text text-anchor="middle" x="429.58" y="-187.49" font-family="Times,serif" font-size="14.00">Resultados Intermediários</text>
</g>
</g>
</svg>
